<?xml version="1.0" encoding="utf-8"?>
<!-- Generator: Adobe Illustrator 21.0.0, SVG Export Plug-In . SVG Version: 6.00 Build 0)  -->
<svg version="1.1" id="Ebene_1" xmlns="http://www.w3.org/2000/svg" xmlns:xlink="http://www.w3.org/1999/xlink" x="0px" y="0px"
	 viewBox="0 0 88.6 68.3" style="enable-background:new 0 0 88.6 68.3;" xml:space="preserve">
<style type="text/css">
	.st0{fill:#FF6060;}
</style>
<title>UNESCO-logo</title>
<path class="st0" d="M57.5,24.8c0-1,1.1-2,2.3-2s2.3,1,2.3,2v6.2h-1.7v-6.2c0-0.2-0.3-0.4-0.6-0.4c-0.2,0-0.6,0.2-0.6,0.4V49
	c0,0.2,0.3,0.5,0.6,0.5c0.2,0,0.6-0.2,0.6-0.5v-7.2h1.7V49c0,1.3-1.1,2.1-2.3,2.1c-1.2,0-2.3-0.8-2.3-2.1V24.8z"/>
<path class="st0" d="M47,24.8c0-1,0.9-2,2.1-2s2.3,0.9,2.3,2v6.2h-1.7v-6.2c0-0.2-0.2-0.4-0.5-0.4c-0.2,0-0.5,0.2-0.5,0.4v4.6
	c0,1.6,0.8,4.3,1.5,6.6c0.7,2.3,1.4,5.2,1.4,6.9V49c0,1.4-1.1,2.1-2.3,2.1c-1.2,0-2.2-0.8-2.2-2.1v-7.2h1.6V49
	c0,0.3,0.3,0.5,0.6,0.5c0.3,0,0.5-0.2,0.6-0.4c0,0,0,0,0,0v-6.2c0-1.6-0.8-4.7-1.4-6.9S47,31.1,47,29.4L47,24.8z"/>
<polygon class="st0" points="37.1,22.8 40.9,22.8 40.9,24.3 39.1,24.3 39.1,35.3 40.9,35.3 40.9,36.8 39.1,36.8 39.1,49.5 
	41.6,49.5 41.6,51.1 37.1,51.1 "/>
<polygon class="st0" points="26.5,22.8 28.4,22.8 29.6,36 29.6,22.8 31.1,22.8 31.1,51.1 29.6,51.1 27.9,34.3 27.9,51.1 26.5,51.1 
	26.5,22.8 "/>
<path class="st0" d="M15.9,22.8h1.8l0,26.2c0,0.3,0.3,0.5,0.6,0.5c0.3,0,0.4-0.2,0.5-0.5l0-26.2h1.8l0,26.2c0,1.3-1.1,2.1-2.3,2.1
	c-1.2,0-2.3-0.8-2.3-2.1L15.9,22.8z"/>
<rect x="5.1" y="61.8" class="st0" width="78.4" height="2.6"/>
<rect x="8.6" y="57.1" class="st0" width="71.4" height="2.8"/>
<rect x="12.3" y="52.5" class="st0" width="64.2" height="2.8"/>
<rect x="12.3" y="19" class="st0" width="64.2" height="2.7"/>
<polygon class="st0" points="17.7,16.8 44.3,8.6 70.6,16.8 62.9,16.8 44.3,11 25.5,16.8 17.7,16.8 "/>
<polygon class="st0" points="12.3,13.9 44.3,3.9 76.5,13.9 76.5,16.8 44.3,7 12.3,16.8 12.3,13.9 "/>
<path class="st0" d="M70.4,22.8c-1.2,0-2.3,1-2.3,2l0,0v24c0,1.3,1,2.1,2.2,2.1c1.2,0,2.3-0.8,2.3-2.1v-24
	C72.7,23.9,71.6,22.8,70.4,22.8z M71,48.9c0,0.2-0.2,0.5-0.6,0.5c-0.3,0-0.6-0.2-0.6-0.5v-24c0-0.2,0.2-0.4,0.6-0.4s0.6,0.2,0.6,0.4
	V48.9z"/>
</svg>
