<svg id="Ebene_1" data-name="Ebene 1" xmlns="http://www.w3.org/2000/svg" viewBox="0 0 396.64 305.84"><defs><style>.cls-1{fill:#f58021;}</style></defs><title>UNESCO-logo</title><path class="cls-1" d="M265,105.62c0-4.89,5.65-10.22,11.61-10.22s11.56,5.16,11.56,10.22v31.53H279.5V105.62c0-.91-1.7-2-2.87-2s-2.92,1.12-2.92,2V227.88c0,1.26,1.68,2.33,2.92,2.33s2.87-1,2.87-2.33V191.49h8.69v36.39c0,6.58-5.51,10.62-11.56,10.62S265,234.38,265,227.88Z"/><path class="cls-1" d="M212.07,105.62c0-5.26,4.8-10.22,10.77-10.22s11.43,4.73,11.43,10.22v31.53h-8.8V105.62a2.38,2.38,0,0,0-2.45-2c-1.25,0-2.69,1.14-2.69,2v23.24c0,8.28,4.22,21.61,7.62,33.13s6.85,26.52,6.85,34.78v31.1c0,7.13-5.44,10.62-11.48,10.62s-11.26-3.95-11.26-10.62V191.49h8.27v36.39a2.74,2.74,0,0,0,3,2.33,2.52,2.52,0,0,0,2.8-2.33v-31.1c0-8.26-4-23.82-7.17-34.78s-6.89-24.85-6.89-33.13Z"/><polygon class="cls-1" points="162.03 95.4 181.1 95.4 181.1 102.95 171.95 102.95 171.95 158.48 181.1 158.48 181.1 166.33 171.95 166.33 171.95 230.55 184.56 230.55 184.56 238.5 162.03 238.5 162.03 95.4"/><polygon class="cls-1" points="108.25 95.4 118.06 95.4 123.97 162 123.97 95.4 131.41 95.4 131.41 238.5 123.97 238.5 115.28 153.31 115.28 238.5 108.25 238.5 108.25 95.4 108.25 95.4"/><path class="cls-1" d="M54.47,95.4h8.87l.1,132.48a2.62,2.62,0,0,0,5.22,0L68.56,95.4h9.08l.1,132.48c0,6.51-5.35,10.62-11.58,10.62s-11.59-3.95-11.59-10.62Z"/><rect class="cls-1" y="292.7" width="396.64" height="13.14"/><rect class="cls-1" x="17.92" y="268.83" width="360.97" height="13.93"/><rect class="cls-1" x="36.4" y="245.77" width="324.71" height="13.93"/><rect class="cls-1" x="36.4" y="76.16" width="324.71" height="13.44"/><polygon class="cls-1" points="63.59 64.96 198.3 23.36 331.1 64.96 292.06 64.96 198.3 35.93 103.08 64.96 63.59 64.96 63.59 64.96"/><polygon class="cls-1" points="36.4 50.17 198.3 0 361.11 50.17 361.11 64.96 198.3 15.68 36.4 64.96 36.4 50.17 36.4 50.17"/><path class="cls-1" d="M330.32,95.4c-6.17,0-11.52,5.23-11.52,10.22h0V227.15c0,6.69,5.28,10.62,11.36,10.62s11.8-4.11,11.8-10.62V105.62C342,100.72,336.48,95.4,330.32,95.4Zm3,131.75c0,1-1.23,2.28-3.12,2.33a2.87,2.87,0,0,1-3.09-2.33V105.62c0-.79,1.07-2,3.09-2s3.12,1.11,3.12,2Z"/></svg>