<svg id="Layer_1" data-name="Layer 1" xmlns="http://www.w3.org/2000/svg" viewBox="0 0 214.03 174.03"><defs><style>.cls-1{font-size:12px;font-family:OpenSans-Italic, Open Sans;font-style:italic;}</style></defs><title>head-icon</title><path d="M80.49,168.12c5.78-.78,11.84,5,16.93-1.51.92-1.18,2.84.49,4.15,1.46,7.07,5.2,12.8,3.42,14.14-5,.42-2.61,2.65-4.19,2.49-6.74-6.55-1.32-13.61.32-20.75-4.19,6.28-3.43,12.41,2,18.18-2.91-8.35-.9-15.41-1.27-22.77,1.89C86.18,154,78.51,156.43,74,143.46c13,8.9,22.28-6.08,33.77-.54.65-2.77-1.28-2.11-2-2.78-3.08-2.9-10-.18-10.4-4.69s6-3.41,9.31-4.84c4.51-2,1.71-5.61,2.72-8.31.82-2.2-1.58-6.35,2-6.45,3.2-.09,7,2.29,7.07,6.45.21,9.13,7.5,7,11.57,6.13,5.62-1.24,12.79-3.9,12-11.53-.6-6-7-3.34-9.26-2.1-6.41,3.41-10.73,2.94-14-3.73-.77-1.57-2.33-1.6-3.88-2.09-5.5-1.77-5.84-5.42-1.25-8.33,3.7-2.35,8.23-3.51,12.51-4.79,3.88-1.16,7.47-2.41,8.27-7s2.51-6.67,6.89-2.94a2,2,0,0,0,3.22-.82c1-2.12-.84-3.1-2.22-3.47-5.46-1.46-11.15-2.32-15.59-7.23,4.71-2.23,8.46,2.63,12.57.18-.58-4.25-4.23-4.23-7.08-5.18-2-.67-5-.34-4.44-3.75,1.47-9-5.31-8-9.81-7.07C104.55,61,93,60.92,81.52,61.39c-4.42.18-10.49,1.69-11.91-3.24-1.48-5.15-.69-11.46,4.66-15.53,1.89-1.44,4.53-2.3,5.18-5.3-3.66-1.07-5.39,2.06-8,2.91-2.81.93-3.85,6.87-8.42,2.87-3.63-3.18-9.75-4.67-7.52-11.69,1.36-4.3-2.56-8-1.82-12.18.41-2.31-2.48-5.8,1-6.72,3-.8,4.9,2.13,6.05,5.05,1,2.57-.75,7.92,4.22,6.8,3.56-.8,7.34-5.25,6.21-8.79-2.91-9.18,2.54-9.84,8.95-11.41,9-2.21,17.44,1.46,17.28,10.45-.25,13.87,8.91,23.37,14.74,33.71,3.67,6.51,14.62,10.08,23.83,12.15,9.74,2.18,14.43,8.68,14.63,18.44.1,4.79.28,9.58.21,14.37-.09,6.11-1.21,12.09,3.28,17.67,4,5,3.24,10.55-.71,15.79-1.24,1.64-6.1,6.13,1.87,4.62a19.41,19.41,0,0,1,.65,4.54c-.75,8.21-10.26,19-18.59,21.09-2.67.68-6.4,0-5,4.79,1.3,4.53,4.35,3.81,7.63,2.46,2.55-1.05,4.82-3.35,8.05-2C131.18,180.2,104.19,182.63,80.49,168.12Zm30.56-27.76c27.48,5.51,27.48,5.51,31.61-1.6-5.28.86-10.7,4.85-14.8.81C122.13,133.9,117.47,136.19,111.05,140.36Zm14.82-31.05c1.72-1.54,7.15,1.86,7.18-2.39s-5.21-4.74-8.95-5.08c-2.52-.23-5.73.2-5.77,3.39C118.3,109.43,121.49,110.12,125.87,109.31Z" transform="translate(-52.97 -3.52)"/><path d="M77.15,112.36l.71-.53c4.49-3.19,13.89,1.59,14.32-5.93.32-5.54-9.15-1.28-12.93-5.95,3.39-2.64,7.2-2.15,10.91-2,5.09.14,10.45,1.62,12.27,6.16,2.06,5.12-5.45,2-6.1,4.63-3.47,14-13.22.88-18.47,6.58Z" transform="translate(-52.97 -3.52)"/><path d="M83.46,140.81c-4.74-.07-10.8-2.16-9.92-5.42,1.53-5.67,8.62-5,13.8-5.82,3.35-.54,5.83.53,5.43,4.43C92.17,139.82,87.71,140.53,83.46,140.81Z" transform="translate(-52.97 -3.52)"/><text class="cls-1" transform="translate(110.03 103.02)">The Secret Tomb <tspan x="0" y="14.4">of China</tspan></text></svg>