<svg id="Layer_1" data-name="Layer 1" xmlns="http://www.w3.org/2000/svg" viewBox="0 0 233.16 185.63"><defs><style>.cls-1{fill:#fefefe;}.cls-2{fill:#987442;}.cls-3{fill:#d3ba91;}.cls-4{fill:#997646;}.cls-5{fill:#957547;}.cls-6{fill:#b28e56;}.cls-7{fill:#886638;}.cls-8{fill:#9c7948;}.cls-9{fill:#b6935c;}.cls-10{fill:#4f371d;}.cls-11{fill:#785a32;}.cls-12{fill:#745934;}.cls-13{fill:#f7e7c7;}.cls-14{fill:#9f7941;}.cls-15{fill:#f0deb8;}.cls-16{fill:#efd9b4;}.cls-17{fill:#967547;}.cls-18{fill:#6a4b23;}.cls-19{fill:#473019;}.cls-20{fill:#86673a;}.cls-21{fill:#c9ab7b;}.cls-22{fill:#d2bd99;}.cls-23{fill:#5f421f;}.cls-24{fill:#ab8d60;}.cls-25{fill:#ebd5af;}.cls-26{fill:#c2a981;}.cls-27{fill:#826238;}.cls-28{fill:#b49768;}.cls-29{fill:#d2ba93;}.cls-30{fill:#876a43;}.cls-31{fill:#e8d9bb;}.cls-32{fill:#5a3d1c;}.cls-33{fill:#b89660;}.cls-34{fill:#c3a270;}.cls-35{fill:#b08b51;}.cls-36{fill:#997139;}.cls-37{fill:#93692f;}.cls-38{fill:#573a1a;}.cls-39{fill:#d8bb8c;}.cls-40{fill:#654722;}.cls-41{fill:#bf9c66;}.cls-42{fill:#7a572a;}.cls-43{fill:#c2a26f;}.cls-44{fill:#b79a6b;}.cls-45{fill:#ae9369;}.cls-46{fill:#9f783f;}.cls-47{fill:#6b4a21;}.cls-48{fill:#321d0d;}.cls-49{fill:#593a15;}.cls-50{fill:#e5cba0;}.cls-51{fill:#c8a875;}.cls-52{fill:#dcb87d;}.cls-53{fill:#9b7f54;}.cls-54{fill:#a0783e;}.cls-55{fill:#edd7b1;}.cls-56{fill:#684924;}.cls-57{fill:#ba9558;}.cls-58{fill:#8a632d;}.cls-59{fill:#50361a;}.cls-60{fill:#291606;}.cls-61{fill:#debe8a;}.cls-62{font-size:12px;font-family:OpenSans-Italic, Open Sans;font-style:italic;}</style></defs><title>solier-306-RTXQUK1</title><path class="cls-1" d="M29,.16C72.74.16,116.51.25,160.28,0c4.83,0,5.94,1.09,5.92,5.92q-.29,86.9,0,173.79c0,4.83-1.09,5.95-5.92,5.92q-62.76-.33-125.52,0c-4.83,0-5.93-1.09-5.92-5.92C29,119.88,29,60,29,.16Z" transform="translate(-28.84 -0.03)"/><path class="cls-2" d="M142.44,106.36c10.23,9.33,10.61,31.4.74,42.54l-1.32-.36c-5.1-5.25-3.25-11.56-2.68-17.68.07-.78,1.05-1.39.42-2.3a4.12,4.12,0,0,1-1.82,2.46c-3,1.54-6,2.71-9.32,1.56-3.75-5.34,5.15-7.75,2.92-12.7a6.17,6.17,0,0,0-3.31-2.9c-2.19-1.05-4.72-1.69-5.48-4.45-4.86-6.54-7.13-6.6-12-.31-5.55,3.22-10,2.55-12.8-3.71a6.08,6.08,0,0,1-.27-2.71c1.62-3.92,5.32-5,8.75-6.46a10.41,10.41,0,0,1,4.17-.16,133.84,133.84,0,0,1,19.76,4.17c2.09-.12,4.2-.53,6.26.21C138,105.43,140.28,105.76,142.44,106.36Z" transform="translate(-28.84 -0.03)"/><path class="cls-3" d="M50.35,127.59c.18-7.36-.2-14.69,6.51-20.21,2.77-2.28.46-5.82-.58-8.7A5.46,5.46,0,0,1,62,97.35c3.57,1.74,2.83,4.55,1.54,7.22-4.13,8.59-3,17.19-.3,25.82,1.58,6-.16,12.63,3.84,18.14,2.23,3.06,4.27,6.25,8.4,7,3.39,2.29,6,.45,8.65-1.58,5.48.81,3.23,4.57,2.52,7.29a15.32,15.32,0,0,1-7.12,9.84c-1.88.88-3.73.34-5.57-.14-3.6-3.07-4.48-8.42-9.63-11a10.07,10.07,0,0,1-4.33,8.4,94.33,94.33,0,0,1-8-5.13c-7.08-5.6-7-8.18,1.23-11.89,3.11-1.41,4.13-1.68,1.8-4.73-2.07-2.72-.63-6.2-1-9.32C54.45,133.41,51.88,130.7,50.35,127.59Z" transform="translate(-28.84 -0.03)"/><path class="cls-4" d="M81.29,5.82c10.61,2.53,11,11,11.27,19.47-6.27,9.7-9.94,10.72-19.87,5-3.45-2-6.51-2-9.8,0-2.73,1.68-5.51,3.36-8.82,1.29a3.2,3.2,0,0,1-.52-2.5c5.56-5.26,10.17-10.78,5.19-18.94a5.42,5.42,0,0,1,.72-2.53l.28.19A46,46,0,0,1,81.29,5.82Z" transform="translate(-28.84 -0.03)"/><path class="cls-5" d="M92.4,31.07c1.09,5.58,8.55,5.94,9.51,11.62-4.49,3.41-7.6-.84-11.26-2-8.22.18-4.42,5.24-3.67,9a20.93,20.93,0,0,0,17.32,2.63c3.34-.28,6.55-.23,8.08,3.58-5.52,5.9-13.08,4.18-19.86,5.32-8.11.48-15.75-4.56-24.05-2.06-2.42-1-4.92-1.69-7.34-2.67-4.24-4.48-1.24-7.88,1.72-11.25,2.63-3,6.82-4.52,8.21-8.7C77.53,32.22,85.39,33.31,92.4,31.07Z" transform="translate(-28.84 -0.03)"/><path class="cls-6" d="M114.32,57.78c2.59.51,5.47-.08,7.63,2,2.68,5,4.72,10.27,9.26,14.13,2.11,1.8,4.2,4.57-.07,6.78-2.87.89-5.3-1.43-7.73-1.23,4.13,2.58,10.31,0,14,4.92,1.14,3.08-.22,7.07-2.34,7.14-6,.17-6,6-9.49,8.31a4.91,4.91,0,0,1-3.92-.67A11.9,11.9,0,0,0,116,92.55c-12.2-6.83-13.26-17.64-3.38-26.39-3.35-1.13-8.13.09-8.81-5.37C106.57,57.13,110.77,58.59,114.32,57.78Z" transform="translate(-28.84 -0.03)"/><path class="cls-7" d="M92.4,31.07c-4.32,2.63-8.82,4.5-14.06,3.91a6.39,6.39,0,0,0-6.92,3.66,4.29,4.29,0,0,1-4.23,2.88c-6.72,0-14,2.72-19.28-4.18a4.6,4.6,0,0,1-.39-2.85c1.3-2.82,2.58-5.69,6.56-3.5A9,9,0,0,0,61.8,28.2c3-3,7.88-4,10.22-1.29,8.06,9.25,14.1,3.61,20.54-1.62Z" transform="translate(-28.84 -0.03)"/><path class="cls-8" d="M125.39,98.74c.63-2.63,1.21-5.27,1.89-7.89.38-1.43,1.37-4.07,2.68-2.57,6.11,7,4.79-2,7.09-3,2.51-1.5,4,.25,5.55,1.76a22.28,22.28,0,0,1,.53,17.67c-2-.89-4.15,1.14-6.14-.27l-5.68,2C129.15,104,124.49,103.52,125.39,98.74Z" transform="translate(-28.84 -0.03)"/><path class="cls-9" d="M144.74,164.11,139,167.77c-4.09-.73-7.51,2.71-11.62,1.86-4.31-5.81-12.28-3.52-17.3-7.77a9.75,9.75,0,0,1-4.27-3.24c-.32-2.3,1.29-3.21,2.94-4.1,2.92-1.15,5.66-2.83,8.91-3a10.52,10.52,0,0,1,5,1.78c5.27,5.15,11.22.06,16.76,1.08C141.2,157.57,144.93,159.77,144.74,164.11Z" transform="translate(-28.84 -0.03)"/><path class="cls-10" d="M127.8,168.64c3.86,1.28,7.11-5.26,11.21-.87-10.35,4.78-20.51,10-31.11,14.17-6.37,2.49-13.06.41-19.3-2.17,5.4-4.66,12.91-3.47,18.79-6.81C113.79,169.6,120.31,166.83,127.8,168.64Z" transform="translate(-28.84 -0.03)"/><path class="cls-11" d="M114.32,57.78c-2.41,4-7.57.82-10.3,4-4.67,5.61-11.52,2.68-17.19,4.39a52.49,52.49,0,0,1-5.66.24,65.8,65.8,0,0,0-11.23.54,7.78,7.78,0,0,1-6.46-2.53l-3.56-4.45c-1-2.26.23-3.17,2.2-3.64,2.8-1.9,5.12-2.44,5.7,2,7.38,2.59,15.11-.43,22.53,1.42l22-3.78Z" transform="translate(-28.84 -0.03)"/><path class="cls-12" d="M104.29,52.34c-6.47,7.7-12.9,1.07-19.35-.05-1.84-6.13,6.62-7.81,5.84-13.49,4.19-.08,6.58,5,11.13,3.88Z" transform="translate(-28.84 -0.03)"/><path class="cls-13" d="M61.74,98.53l-5.47.14c-1.31-.48-1.7-1.1-.28-2,1.71-5,0-11.57,6.55-14.39a12.9,12.9,0,0,1,5-2.78,11.35,11.35,0,0,1,4.22-.2c5.16,3.91,5.55,16,.59,19.28-2.55,1.69-5.41,1.41-6.6-1.17C61.72,88.69,63.87,101.27,61.74,98.53Z" transform="translate(-28.84 -0.03)"/><path class="cls-14" d="M131.27,79.36c-3.64-5.4-7.09-11-11-16.16-2.24-3,.08-2.8,1.69-3.38l11.49,3.46c1,2.25-4.44,5.45,1.74,7.39a7.24,7.24,0,0,1,4.42,10.16C136.4,82.76,133.22,84.52,131.27,79.36Z" transform="translate(-28.84 -0.03)"/><path class="cls-15" d="M67.64,81.22l-3.71,2.07c-8.47.7-7.51-4.39-6-9.81-.21-4.29,4-5.88,5.56-9.1l5.59,1.2c2.12-.68,4.76-1.77,6,.59,1,2-1.48,3.2-3.05,4C67.39,72.71,70.89,78.29,67.64,81.22Z" transform="translate(-28.84 -0.03)"/><path class="cls-16" d="M60,168.34c.44-1.49.42-3.75,1.4-4.33,4.2-2.48-6-8.72,1.35-8,3.87.38,10.63,4.72,10.58,11.88,0,.64,0,1.28,0,1.92-1.26,2.3-4.06.34-5.55,2C64,173.16,62.08,170.57,60,168.34Z" transform="translate(-28.84 -0.03)"/><path class="cls-17" d="M54.07,31c-3-.27-3.79,2.64-5.64,4-4.57-4.79-3.89-11.22-5.34-17a5,5,0,0,1,1.42-4.16c2.84-.64,5.23.56,7.58,1.89,3.55,1.37,4.1,4.38,4.22,7.65a8.28,8.28,0,0,1-2.22,5.67Z" transform="translate(-28.84 -0.03)"/><path class="cls-18" d="M138.85,154.35c-5.65,4.17-11.33,6.58-17.13.24,3.26-3.06,9-3.07,10.38-8.42.87-2.06,2.11-3.67,4.59-3.76,3.27.84,2.9,4.86,5.48,6.31a1.12,1.12,0,0,0,1,.19l-.54,2C142,152.73,141,154.19,138.85,154.35Z" transform="translate(-28.84 -0.03)"/><path class="cls-19" d="M48.23,36.82c5.6,5.38,13,1,19.09,3.45-2,3.73-4.55,6.88-9,7.81-3.69-3.55-9.32-4.54-12.17-9.19C45.63,37,46.52,36.49,48.23,36.82Z" transform="translate(-28.84 -0.03)"/><path class="cls-20" d="M139.15,79.46c-1.26-6.76-7.71-8.32-12.29-11.9,1.31-3.1,5.83-.84,6.59-4.28,5,3.49,9.4,7.36,9.36,14.17C141.82,78.55,141.21,80.32,139.15,79.46Z" transform="translate(-28.84 -0.03)"/><path class="cls-21" d="M138.85,154.35l3.79-3.47c10.53,3.68,10.6,4.12,2.1,13.23C141.4,161.69,138.22,159.16,138.85,154.35Z" transform="translate(-28.84 -0.03)"/><path class="cls-22" d="M44.52,13.84l.07,3.68c.21,4-.39,8,.38,12.06.36,1.93,1.51,5.21-2.62,5.36C34.64,25.64,35.24,19.74,44.52,13.84Z" transform="translate(-28.84 -0.03)"/><path class="cls-23" d="M139.15,79.46l3.65-2c1.39,3.21.63,6.38-.19,9.55l-5.55-1.76c-3-1-6-1.74-8.85-2.9-2.42-1-5.66-.64-7.36-4.39l10.42,1.41C133.86,81.86,136.49,81.94,139.15,79.46Z" transform="translate(-28.84 -0.03)"/><path class="cls-24" d="M42.35,34.94c1.46-5.71-1.89-12,2.25-17.42A52.87,52.87,0,0,1,48.43,35q-.13.91-.2,1.82l-2.08,2.07Z" transform="translate(-28.84 -0.03)"/><path class="cls-25" d="M57.92,73.48c-.74,4.95,1.18,8.27,6,9.8-4.06,3.64-6.09,8.48-7.93,13.42C57.27,89,51.08,80.71,57.92,73.48Z" transform="translate(-28.84 -0.03)"/><path class="cls-26" d="M58.33,48.09a21.64,21.64,0,0,1,9-7.81l4.09-1.64c1.28,4.94-4,4.35-5.79,6.76-2.48,3.32-7.59,5.53-3.51,10.89l-2.2,3.65C56.35,56.39,58.26,52.11,58.33,48.09Z" transform="translate(-28.84 -0.03)"/><path class="cls-27" d="M108.14,175.68c-6.67.64-12.61,4.72-19.54,4.09-3,.34-4.51-1.77-6.2-3.63a6,6,0,0,1,3.87-2.4,65.85,65.85,0,0,1,9.07-.49c2.49,0,4.85-.94,7.32-1.13C105.11,172.35,108,172,108.14,175.68Z" transform="translate(-28.84 -0.03)"/><path class="cls-28" d="M81.29,5.82c-7.23.12-14.16,3.46-21.54,2C66.39,1.22,73.85,3.63,81.29,5.82Z" transform="translate(-28.84 -0.03)"/><path class="cls-29" d="M54.1,23.29a12.85,12.85,0,0,0-2-7.55c3.38-1.88,2.5-7.61,7.36-8.14l.31,2.18C58.72,14.63,63.49,21.93,54.1,23.29Z" transform="translate(-28.84 -0.03)"/><path class="cls-30" d="M86.8,175.93l-4.4.21c-5.14-.62-9.07-5.32-14.68-4.33,1.33-2.12,3.67-1.41,5.55-2l5.86.65c2.56,0,4.65,1.3,6.82,2.41C86.88,173.71,87.79,174.56,86.8,175.93Z" transform="translate(-28.84 -0.03)"/><path class="cls-31" d="M50.35,127.59c3,2.55,8.22,4.26,3.67,9.68A10.53,10.53,0,0,1,50.35,127.59Z" transform="translate(-28.84 -0.03)"/><path class="cls-32" d="M137,104.4c2.1-1.2,4.37-6.15,6.14.27a2.26,2.26,0,0,1-.69,1.69c-1.89.68-3.45,3.29-5.73,1.36C136.22,107.3,136.87,105.54,137,104.4Z" transform="translate(-28.84 -0.03)"/><path class="cls-33" d="M86.86,64,104,61.75c2.26,1.15,4.47,2.34,7.21,2,1.91-.22,4.79-2.36,5.34,1.29.33,2.2-1.41,3.86-3.85,4.75s-4.95,1.3-4.7,5.5c.44,7.37,3.72,13,9.84,15.89,5.06,2.36,5.53,1.34,3.77,7.15-3.19,3.11-7.16,2.82-11.12,2.52l-4.27-.24c-2.17-3.68,1-8.31-2.1-11.86-2.45-.95-3.24,1.39-4.58,2.44-5.76,4.5-9.84,3-12.82-3.27-1.68-3.51-3.49-6.91-8.18-6.87C76.66,80.72,75,80,74.36,78a5.07,5.07,0,0,1,.43-2.65C80.09,72.93,86.17,71.33,86.86,64Z" transform="translate(-28.84 -0.03)"/><path class="cls-34" d="M78.89,79.47c8.54-4.37,7.94,4.22,9.67,7.66,3.32,6.59,6.52,5.68,10.8,1.59,1.62-1.55,1.69-5.7,5.34-3.8,2.74,1.42,3.47,4.29,3.5,7.42a17.39,17.39,0,0,1-2,8.29l-7.73,5.79c-1.92,1.6-4.27,2-6.25.76-5.58-3.51-12.12-3.59-18.13-5.52C75.48,94.22,74.84,86.34,78.89,79.47Z" transform="translate(-28.84 -0.03)"/><path class="cls-35" d="M98.47,108.24c3.57,3.62,8.28,3.09,12.73,3.53a5.41,5.41,0,0,1,5.65-.37c1.51,1.05,3.68,2.09,2.66,4.26-1.24,2.62-4.07,2.47-6.56,2.53-.66.76-3-1.54-2.26.64.93,2.69,4.31,4.86,0,7.42-4.06-1.64-8.16-1-12.27-.23-1.76-1.58-1.36-5-4.67-5.27-4.16-3.08-2.64-6.93-1.49-10.75C94,108.19,96.27,108.39,98.47,108.24Z" transform="translate(-28.84 -0.03)"/><path class="cls-36" d="M98.47,108.24c-1.38,2.31-3.74,1.87-5.86,2.09-.85,1.28-2.37,2.31-2.42,3.9-.2,7.56-3.94,7.34-9.07,4.32-1.54-.21,1.83-4-2-2.75a5.8,5.8,0,0,1-6-1.56c-.39-1.56.4-2.54,1.61-3.32,1.48-1.07,3.75-.42,5-2.32-2.77-3.4-9-.2-10.68-5.64.7-2,2-3.09,4.25-2.65,9.39-2,16.82,4.13,25.25,6.1Q98.48,107.33,98.47,108.24Z" transform="translate(-28.84 -0.03)"/><path class="cls-37" d="M127.44,131.43l9.87-1.82c2.66,6.33-4.93,8.26-5.64,13.17a5.89,5.89,0,0,1-3.56,2.13c-7.15.15-13.13-1.57-15.17-9.55.4-2.36,2.09-3.36,4.17-3.95C120.56,131,124,129.84,127.44,131.43Z" transform="translate(-28.84 -0.03)"/><path class="cls-38" d="M131.59,141.44c-2.12-5.89,6.38-6.64,5.72-11.83l3-6.5c2.19,8.88-.74,17.49,1.91,25.6-3.65-.51-4-4-5.52-6.3C135,141.74,133.16,142.37,131.59,141.44Z" transform="translate(-28.84 -0.03)"/><path class="cls-35" d="M127.44,131.43a14.82,14.82,0,0,1-9.57,1.89,1.78,1.78,0,0,1-.66-1.45c0-.55.12-.83.23-.83,4.17-3.33,1.74-7.43,1.29-11.3a2.79,2.79,0,0,1,2.6-2.44c3.86,2.44,7.76,4.34,11.95.62C136,124.46,131.7,127.92,127.44,131.43Z" transform="translate(-28.84 -0.03)"/><path class="cls-39" d="M116,112.32l-4.83-.54c-1.43-2.75-3.81-6.46,1.53-6.77,4.59-.27,10.6-.49,10.81,7C121.12,114.37,118.57,113.29,116,112.32Z" transform="translate(-28.84 -0.03)"/><path class="cls-40" d="M110.5,100.87l11.12-2.52,3.77.39,5.92,7.62Z" transform="translate(-28.84 -0.03)"/><path class="cls-41" d="M133.28,117.92c-4.83,8.71-4.83,8.71-11.81-.23,1.64-4.78,4.93-2.35,7.79-1.77C130.88,116,132.43,116.26,133.28,117.92Z" transform="translate(-28.84 -0.03)"/><path class="cls-42" d="M129.26,115.91c-2.58.65-5.57-.45-7.79,1.78l-1.87,1.81c-4.46,3.07-7.11,2.19-7.58-3.47,2-.48,4.3,1.11,5.83-.93.23-.3-1.18-1.82-1.83-2.78l7.51-.31Z" transform="translate(-28.84 -0.03)"/><path class="cls-43" d="M81.27,118.14c2-1.46,8.7,4,6.16-4.49-1.1-3.71,2.71-3.29,5.19-3.32,3,2.71-2.39,7.19,2,9.58.69,5.72-5.54,9.27-4.68,15-.45,2.39,0,4.82-.33,7.22C87.81,146.5,82,146,80,150.06c-1.15,2.16-4.59,2.55-4.38,5.75,0,.41,0,.81,0,1.21-10.13.19-11.47-8-13.6-14.9-1-3.22-.14-7-.12-10.53,4-4.23,2.44-11.73,8.72-14.59C74.35,115.35,77.81,116.72,81.27,118.14Z" transform="translate(-28.84 -0.03)"/><path class="cls-25" d="M71.55,117.82c-2,2.56-4.62,4.64-4,8.65s-2.19,5.22-5.72,5.13c-5.22-10.08-5.58-20,.72-29.84.81-1.26.23-2.34-.83-3.21-.38-2.15-.85-4.29-1.12-6.45-.45-3.48,2.63-3.27,4.45-3.52,3.21-.43,2.39,2,1.77,3.7-1.07,2.89-.71,5.41,2.62,5.57a3.86,3.86,0,0,0,3.71-5.34c-1.53-3.71,5.42-8.52-1.63-11.14-1.23-3.13.49-3.75,3.08-3.62l4.27,1.74c-2,6.93,1.95,15.45-5.65,20.86l-3.54,2.28c-.69,4.52,8.88,3.16,5.34,9.32L73,113.68C72.72,115.14,71.35,116.21,71.55,117.82Z" transform="translate(-28.84 -0.03)"/><path class="cls-44" d="M85.08,174.07a6.3,6.3,0,0,1-5.95-3.61c6.7-10.38,6.73-10.51,4.26-15.35l-.72-1.45c.81-2.31,2.8-3.16,4.84-4,8.1-.91,16.72-5.56,23.51,3.18-3.26,5.79-8.32,2.19-11.42,2.61-2.49-.42-1,1.93-1.26.68-.11-.49.15-.6.77-.56,2.62.16,5.08.7,6.9,2.82,1.6.15,3.14.41,4,2-.44,1.82-1.78,2.66-3.39,3.21-3.93,1.72-1.28,5.71-2.82,8.27a7.08,7.08,0,0,1-1.59,2l-5.74,2.08c-2.56-2.68-5.77-5-5.71-9.53A11.83,11.83,0,0,1,85.08,174.07Z" transform="translate(-28.84 -0.03)"/><path class="cls-43" d="M83.39,155.11c-.94,7.47-4.19,5.44-7.81,1.91-.2-.34-.4-.68-.62-1,1.87-4.09,4.73-3.6,7.89-1.7Z" transform="translate(-28.84 -0.03)"/><path class="cls-28" d="M54.1,23.29c6.76-2.46,1.57-9.93,5.67-13.51,6.64,8,4.68,14.61-5.67,19.28Q54.1,26.17,54.1,23.29Z" transform="translate(-28.84 -0.03)"/><path class="cls-7" d="M90.78,38.8c7.06,8.39-4.93,8.54-5.83,13.49-4.48-4.23-1-9-.33-13.23S88.56,36.84,90.78,38.8Z" transform="translate(-28.84 -0.03)"/><path class="cls-45" d="M90.35,59.71c-6.6.67-13.2,1.31-19.8,2-2.8.3-4.59-.08-2.73-3.43C75.75,52,82.86,58.83,90.35,59.71Z" transform="translate(-28.84 -0.03)"/><path class="cls-46" d="M102.24,173.86q.13-.86.2-1.72c2.9-2.58,3.86-5.94,3.94-9.66l3.67-2.07c4.35-.72,7,2.26,9.8,4.63,3.29-1.18-1.51-4.11,1.5-5.42l6.45,9c-6.65,2.08-13.87,2.57-19.66,7C106.65,173.53,104.34,174.06,102.24,173.86Z" transform="translate(-28.84 -0.03)"/><path class="cls-47" d="M110,154.49c-7.19-7.24-15.4-3.35-23.36-2.14-1.58-2.46,0-4.89,0-7.35,4.71-4.83,10.55-2.43,16-2.54,4.86.25,9.94-.14,13.33,4.47-2,2.68,3.62,3.32,1.63,6l-7.59,3.7Q108.46,155.61,110,154.49Z" transform="translate(-28.84 -0.03)"/><path class="cls-48" d="M117.68,153c.38-1.82-4.79-1.87-1.46-4.62,4.74-1.52,10.07,1.14,14.57-2.07a2.71,2.71,0,0,1,2.38.62c-.12,8.06-6.06,7.47-11.45,7.71Z" transform="translate(-28.84 -0.03)"/><path class="cls-49" d="M110,154.49l.06,2.16L106,158.41,91.6,155.92l0-1.43Z" transform="translate(-28.84 -0.03)"/><path class="cls-50" d="M74.62,77.73l-3.08,3.61-3.9-.13c.57-5.37-7.17-14.05,5.86-15l-4.44-.66c3.76-2.21,7.88-1.49,11.92-1.47,2.56,6-4.91,7-5.65,11.35Z" transform="translate(-28.84 -0.03)"/><path class="cls-51" d="M75.34,75.47C71,68.59,81.79,69.24,81,64.12L86.86,64C89,73.85,87.64,75.19,75.34,75.47Z" transform="translate(-28.84 -0.03)"/><path class="cls-52" d="M133.17,146.87a5.36,5.36,0,0,1-1.4.43c-3.39.14-3.68-1.45-2.22-4l2-1.87c1.8-.26,4.26-4,5.06,1Z" transform="translate(-28.84 -0.03)"/><path class="cls-53" d="M85.08,174.07c1.52-4.17,4.57-7.69,5.23-12.66-.09,6.06,5.61,9.16,6.19,14.52H86.8Z" transform="translate(-28.84 -0.03)"/><path class="cls-41" d="M112,116c1.6,3.18,4.16,4.27,7.58,3.47,2.26,4.47,8.51,9.56-1.88,12.06-3.52,1.79-6.61,1.34-8.81-2.06-.92-1.42-2.09-3.42,1.13-3.85,3.34-3,.17-4.28-1.69-5.69-1.4-1.07-2.6-2.42-1.55-3.87C108.2,114.15,110.25,116.47,112,116Z" transform="translate(-28.84 -0.03)"/><path class="cls-54" d="M110,125.65c-.56,6,4,5.43,7.68,5.91q.09.88.14,1.76c-1.64.12-3.15.47-4,2.11s-.69,4.54-3.86,4.22c-3-2.32-6.55-3.8-9.91-5.58a8.75,8.75,0,0,1-2.77-6,4.36,4.36,0,0,1,1.08-2.45C102.28,121.77,106.16,119.23,110,125.65Z" transform="translate(-28.84 -0.03)"/><path class="cls-55" d="M98.41,125.66a3.33,3.33,0,0,0-.07,1.78c-.63,4.27-2.62,7.42-7,8.62a2.72,2.72,0,0,1-2.42-.72c-3.64-7.22,3.22-10.51,5.77-15.42C101.81,118,96.44,124.21,98.41,125.66Z" transform="translate(-28.84 -0.03)"/><path class="cls-43" d="M75,111.93c.84-4.61-8-3.66-5.34-9.32,1.45,2.22,3.8,1.75,5.92,2,3.6.42,9.14-.09,8.74,4.62C83.91,114.53,78.47,111.74,75,111.93Z" transform="translate(-28.84 -0.03)"/><path class="cls-56" d="M71.55,117.82c-1.09-1-3.85-.49-3.37-2.43s3.11-1.19,4.77-1.71a69.24,69.24,0,0,1,8.16.56c5.21,1-1.07,2.62.15,3.9C77.89,122,74.84,116.54,71.55,117.82Z" transform="translate(-28.84 -0.03)"/><path class="cls-57" d="M110.27,139.28l3.61-3.85c3.49,6.08,9.07,8,15.68,7.87a3.61,3.61,0,0,0,2.22,4c-4.84,5.53-10.25,2.6-15.56,1-4-3.87-9.26-3.14-14.15-3.73-1.38-.64-2.46-1.45-1.88-3.23C103.1,138.51,106.19,136.5,110.27,139.28Z" transform="translate(-28.84 -0.03)"/><path class="cls-58" d="M64.53,137.55c4.73-3.22,9.44-3.94,14.07-4.93,2.88-.62,5.91-1.94,6.36,2.72.34,3.51-.66,6.5-4.5,7.38C74.49,144.08,69,143.27,64.53,137.55Z" transform="translate(-28.84 -0.03)"/><path class="cls-59" d="M110.27,139.28l-10,3.57c-4.35,2.45-7.37-2.16-11.27-2.13-1.83-1.77-1.58-3.58-.08-5.4a15.62,15.62,0,0,0,1.6-.35c3.3-.57,6.43-2.3,9.94-1.53C104.69,133.73,109.36,133.34,110.27,139.28Z" transform="translate(-28.84 -0.03)"/><path class="cls-60" d="M86.75,146.76c2.67,1.9-.5,3.72-.08,5.59l-3.82,2c-2.66.43-5.65-.67-7.89,1.7-3.48-3.91-3.48-3.91,4.43-7C81.42,146.84,83.56,145.08,86.75,146.76Z" transform="translate(-28.84 -0.03)"/><path class="cls-61" d="M86.75,146.76,79.39,149c-.3-6.8,8.32-3.27,9.58-8.27,4.25-1.93,7.34,2.31,11.27,2.13l1.82,1.74C97.24,147.34,91.08,140.56,86.75,146.76Z" transform="translate(-28.84 -0.03)"/><path class="cls-9" d="M106.38,162.48c4.92,5.76,1.38,8.07-3.94,9.66-.15-2.76-.27-5.53-.45-8.29C101.56,157.31,104.9,162.88,106.38,162.48Z" transform="translate(-28.84 -0.03)"/><path class="cls-35" d="M100.43,133.45c-3,2.62-6.56,1.47-9.94,1.53a13.8,13.8,0,0,0,7.85-7.55Z" transform="translate(-28.84 -0.03)"/><text class="cls-62" transform="translate(129.16 114.61)">The Secret Tomb <tspan x="0" y="14.4">of China</tspan></text></svg>